# xmcd
#
# Track frame offsets:
#	151
#	22542
#	36296
#	50282
#	64601
#	79828
#	93353
#	111990
#	125879
#	141612
#	155101
#	166748
#	178886
#	196660
#	211850
#	224588
#	238984
#	253328
#	265362
#	281628
#	296545
#	312529
#	327799
#	341403
#
# Disc length: 4695 seconds
#
# Revision: 1
# Processed by: cddbd v1.5.2PL0 Copyright (c) Steve Scherf et al.
# Submitted via: audiograbber 1.83.01
#
DISCID=77125518
DTITLE=Hawkins, Coleman - The Complete Victor Recordings 1939-1956, Master Take
DTITLE=s, Disc 2
DYEAR=2006
DGENRE=Jazz
TTITLE0=Body and Soul
TTITLE1=Little Girl Blue
TTITLE2=I Never Knew
TTITLE3=Dinner For One, Please James
TTITLE4=The Bean Stalks Again
TTITLE5=His Very Own Blues
TTITLE6=The Day You Came Along
TTITLE7=Have You Met Miss Jones
TTITLE8=The Essence of You
TTITLE9=There Will Never Be Another You
TTITLE10=I'm Shootin' High
TTITLE11=Bean and the Boys
TTITLE12=April in Paris
TTITLE13=Mon Homme (My man)
TTITLE14=Under Paris Skies
TTITLE15=Mimi
TTITLE16=La Chnouf
TTITLE17=La vie en Rose
TTITLE18=La Mer
TTITLE19=Paris in the Spring
TTITLE20=I Love Paris
TTITLE21=Mademoiselle de Paree
TTITLE22=Chiens perdu sans collier (The Little Lost Dog)
TTITLE23=Tu n' peux t' figurer (Dawn Over Paris)
EXTD=
EXTT0=
EXTT1=
EXTT2=
EXTT3=
EXTT4=
EXTT5=
EXTT6=
EXTT7=
EXTT8=
EXTT9=
EXTT10=
EXTT11=
EXTT12=
EXTT13=
EXTT14=
EXTT15=
EXTT16=
EXTT17=
EXTT18=
EXTT19=
EXTT20=
EXTT21=
EXTT22=
EXTT23=
PLAYORDER=
